<svg width="30" height="35" viewBox="0 0 30 35" fill="none" xmlns="http://www.w3.org/2000/svg">
<path d="M10.7402 0.265137V3.11407H13.5892V4.5382C14.586 4.39598 15.4406 4.39598 16.4381 4.5382V3.11407H19.287V0.265137H10.7409H10.7402Z" fill="black"/>
<circle cx="15.0133" cy="19.5938" r="11.2125" fill="white"/>
<path d="M24.6989 9.666L25.6957 8.66918L26.8354 9.80888L28.8298 7.81456L24.5567 3.5415L22.5624 5.53582L23.7021 6.67553L22.4202 7.95744C15.5833 3.82593 6.75206 5.96246 2.76409 12.7994C-1.22454 19.6362 0.911989 28.1824 7.60667 32.3132C14.3014 36.4441 23.1319 34.3075 27.1205 27.4706C30.6812 21.6306 29.6844 14.2242 24.6989 9.666ZM15.0131 30.0345C9.45811 30.0345 5.04284 25.6192 5.04284 20.0642C5.04284 14.5092 9.45811 10.094 15.0131 10.094V20.0642H24.9833C24.9833 25.6192 20.5681 30.0345 15.0131 30.0345Z" fill="black"/>
</svg>
